<svg width="50" height="50" viewBox="0 0 50 50" fill="none" xmlns="http://www.w3.org/2000/svg">
<path d="M37.5 12.5H42.7083C43.2836 12.5 43.75 12.9664 43.75 13.5417C43.75 14.117 43.2836 14.5833 42.7083 14.5833H37.5V19.7917C37.5 20.367 37.0336 20.8333 36.4583 20.8333C35.883 20.8333 35.4167 20.367 35.4167 19.7917V14.5833H30.2083C29.633 14.5833 29.1667 14.117 29.1667 13.5417C29.1667 12.9664 29.633 12.5 30.2083 12.5H35.4167V7.29167C35.4167 6.71637 35.883 6.25 36.4583 6.25C37.0336 6.25 37.5 6.71637 37.5 7.29167V12.5ZM41.6667 23.9583C41.6667 23.383 42.133 22.9167 42.7083 22.9167C43.2836 22.9167 43.75 23.383 43.75 23.9583V38.5417C43.75 41.4181 41.4181 43.75 38.5417 43.75H11.4583C8.58185 43.75 6.25 41.4181 6.25 38.5417V11.4583C6.25 8.58185 8.58185 6.25 11.4583 6.25H26.0417C26.617 6.25 27.0833 6.71637 27.0833 7.29167C27.0833 7.86696 26.617 8.33333 26.0417 8.33333H11.4583C9.73244 8.33333 8.33333 9.73244 8.33333 11.4583V38.5417C8.33333 40.2676 9.73244 41.6667 11.4583 41.6667H38.5417C40.2676 41.6667 41.6667 40.2676 41.6667 38.5417V23.9583Z" fill="white"/>
</svg>
