<svg width="29" height="29" viewBox="0 0 29 29" fill="none" xmlns="http://www.w3.org/2000/svg">
<path d="M24.1667 12.0835C24.1667 8.26535 22.0914 6.04183 18.7292 6.04183C16.9366 6.04183 15.7398 6.72569 15.0404 8.12452C14.8177 8.56982 14.1823 8.56982 13.9596 8.12452C13.2602 6.72569 12.0634 6.04183 10.2708 6.04183C6.90862 6.04183 4.83333 8.26535 4.83333 12.0835C4.83333 14.9824 8.03381 18.6073 14.5 22.8418C20.9662 18.6073 24.1667 14.9824 24.1667 12.0835ZM18.7292 4.8335C22.7781 4.8335 25.375 7.61593 25.375 12.0835C25.375 15.5804 21.8365 19.5351 14.8282 24.0699C14.6285 24.1991 14.3715 24.1991 14.1718 24.0699C7.16346 19.5351 3.625 15.5804 3.625 12.0835C3.625 7.61593 6.22193 4.8335 10.2708 4.8335C12.1168 4.8335 13.545 5.46595 14.5 6.71334C15.455 5.46595 16.8832 4.8335 18.7292 4.8335Z" fill="#C16851"/>
</svg>
