<svg width="25" height="23" viewBox="0 0 25 23" fill="none" xmlns="http://www.w3.org/2000/svg">
<path d="M23.5 8.75C23.5 4.40522 21.1385 1.875 17.3125 1.875C15.2726 1.875 13.9108 2.65318 13.1149 4.24496C12.8616 4.75168 12.1384 4.75168 11.8851 4.24496C11.0892 2.65318 9.72737 1.875 7.6875 1.875C3.86153 1.875 1.5 4.40522 1.5 8.75C1.5 12.0488 5.14192 16.1736 12.5 20.9922C19.8581 16.1736 23.5 12.0488 23.5 8.75ZM17.3125 0.5C21.9199 0.5 24.875 3.66621 24.875 8.75C24.875 12.7292 20.8485 17.2294 12.8735 22.3897C12.6462 22.5368 12.3538 22.5368 12.1265 22.3897C4.15152 17.2294 0.125 12.7292 0.125 8.75C0.125 3.66621 3.08013 0.5 7.6875 0.5C9.78809 0.5 11.4133 1.21969 12.5 2.63913C13.5867 1.21969 15.2119 0.5 17.3125 0.5Z" fill="#2C2C2C"/>
</svg>
