<svg width="21" height="21" viewBox="0 0 21 21" fill="none" xmlns="http://www.w3.org/2000/svg">
<path d="M0.375 3.1875C0.375 1.6342 1.6342 0.375 3.1875 0.375H6.5625C8.1158 0.375 9.375 1.6342 9.375 3.1875V6.5625C9.375 8.1158 8.1158 9.375 6.5625 9.375H3.1875C1.6342 9.375 0.375 8.1158 0.375 6.5625V3.1875ZM1.5 3.1875V6.5625C1.5 7.49448 2.25552 8.25 3.1875 8.25H6.5625C7.49448 8.25 8.25 7.49448 8.25 6.5625V3.1875C8.25 2.25552 7.49448 1.5 6.5625 1.5H3.1875C2.25552 1.5 1.5 2.25552 1.5 3.1875ZM11.625 3.1875C11.625 1.6342 12.8842 0.375 14.4375 0.375H17.8125C19.3658 0.375 20.625 1.6342 20.625 3.1875V6.5625C20.625 8.1158 19.3658 9.375 17.8125 9.375H14.4375C12.8842 9.375 11.625 8.1158 11.625 6.5625V3.1875ZM12.75 3.1875V6.5625C12.75 7.49448 13.5055 8.25 14.4375 8.25H17.8125C18.7445 8.25 19.5 7.49448 19.5 6.5625V3.1875C19.5 2.25552 18.7445 1.5 17.8125 1.5H14.4375C13.5055 1.5 12.75 2.25552 12.75 3.1875ZM0.375 14.4375C0.375 12.8842 1.6342 11.625 3.1875 11.625H6.5625C8.1158 11.625 9.375 12.8842 9.375 14.4375V17.8125C9.375 19.3658 8.1158 20.625 6.5625 20.625H3.1875C1.6342 20.625 0.375 19.3658 0.375 17.8125V14.4375ZM1.5 14.4375V17.8125C1.5 18.7445 2.25552 19.5 3.1875 19.5H6.5625C7.49448 19.5 8.25 18.7445 8.25 17.8125V14.4375C8.25 13.5055 7.49448 12.75 6.5625 12.75H3.1875C2.25552 12.75 1.5 13.5055 1.5 14.4375ZM11.625 14.4375C11.625 12.8842 12.8842 11.625 14.4375 11.625H17.8125C19.3658 11.625 20.625 12.8842 20.625 14.4375V17.8125C20.625 19.3658 19.3658 20.625 17.8125 20.625H14.4375C12.8842 20.625 11.625 19.3658 11.625 17.8125V14.4375ZM12.75 14.4375V17.8125C12.75 18.7445 13.5055 19.5 14.4375 19.5H17.8125C18.7445 19.5 19.5 18.7445 19.5 17.8125V14.4375C19.5 13.5055 18.7445 12.75 17.8125 12.75H14.4375C13.5055 12.75 12.75 13.5055 12.75 14.4375Z" fill="#577655"/>
</svg>
