<svg width="60" height="60" viewBox="0 0 60 60" fill="none" xmlns="http://www.w3.org/2000/svg">
<path d="M30.3777 29.6178C29.8909 29.1283 29.893 28.3369 30.3825 27.85C30.872 27.3632 31.6634 27.3654 32.1503 27.8548C35.3928 31.115 35.3885 36.3834 32.1406 39.6383L26.7212 45.0694C23.4883 48.3093 18.2461 48.3313 14.9862 45.1186C11.7291 41.9078 11.6916 36.6659 14.9016 33.4097L20.3602 27.8724C20.8449 27.3807 21.6363 27.3751 22.128 27.8597C22.6196 28.3444 22.6253 29.1358 22.1406 29.6274L16.682 35.1648C14.4413 37.4377 14.4675 41.0967 16.7405 43.3374C19.0219 45.5858 22.6896 45.5704 24.9515 43.3036L30.3709 37.8724C32.6461 35.5923 32.6492 31.9016 30.3777 29.6178ZM29.2201 30.3823C29.7069 30.8718 29.7048 31.6633 29.2153 32.1501C28.7258 32.6369 27.9344 32.6348 27.4475 32.1453C24.2044 28.8845 24.2052 23.6162 27.4494 20.3564L32.671 15.1097C36.0388 11.7257 41.4957 11.6598 44.9442 14.9616C45.0582 15.0707 45.169 15.1831 45.2765 15.2986C48.3643 18.6167 48.1776 23.8098 44.8595 26.8976L39.1989 32.1653C38.6935 32.6356 37.9026 32.6071 37.4323 32.1018C36.962 31.5964 36.9904 30.8054 37.4958 30.3351L43.1564 25.0675C45.4637 22.9202 45.5936 19.3091 43.4464 17.0017C43.3716 16.9214 43.2945 16.8432 43.2153 16.7674C40.7504 14.4074 36.8502 14.4545 34.443 16.8732L29.2214 22.1199C26.9477 24.4046 26.9471 28.097 29.2201 30.3823Z" fill="#FAF8F4"/>
</svg>
