<svg width="34" height="34" viewBox="0 0 34 34" fill="none" xmlns="http://www.w3.org/2000/svg">
<path d="M23.4121 18.9598L30.6135 22.2331C32.4728 23.0783 33.6666 24.9322 33.6666 26.9746V28.4583C33.6666 31.3348 31.3347 33.6666 28.4582 33.6666H5.54158C2.6651 33.6666 0.333252 31.3348 0.333252 28.4583V26.9746C0.333252 24.9322 1.52702 23.0783 3.38636 22.2331L10.5877 18.9598C8.15011 17.0532 6.58325 14.0846 6.58325 10.75C6.58325 4.99701 11.247 0.333313 16.9999 0.333313C22.7529 0.333313 27.4166 4.99701 27.4166 10.75C27.4166 14.0846 25.8497 17.0532 23.4121 18.9598ZM12.7526 20.2642L4.24845 24.1297C3.13284 24.6368 2.41658 25.7492 2.41658 26.9746V28.4583C2.41658 30.1842 3.81569 31.5833 5.54158 31.5833H28.4582C30.1841 31.5833 31.5832 30.1842 31.5832 28.4583V26.9746C31.5832 25.7492 30.867 24.6368 29.7514 24.1297L21.2473 20.2642C19.9501 20.8442 18.5127 21.1666 16.9999 21.1666C15.4871 21.1666 14.0497 20.8442 12.7526 20.2642ZM16.9999 19.0833C21.6023 19.0833 25.3332 15.3524 25.3332 10.75C25.3332 6.14761 21.6023 2.41665 16.9999 2.41665C12.3975 2.41665 8.66658 6.14761 8.66658 10.75C8.66658 15.3524 12.3975 19.0833 16.9999 19.0833Z" fill="#2C2C2C"/>
</svg>
