<svg width="38" height="60" viewBox="0 0 38 60" fill="none" xmlns="http://www.w3.org/2000/svg">
<path d="M0.853004 41.7929L0.853004 18.1692C0.853005 8.1365 8.98613 0.00336873 19.0189 0.0033689C29.0516 0.0033689 37.1847 8.1365 37.1847 18.1692L37.1847 41.7929C37.1847 51.8257 29.0516 59.9588 19.0188 59.9588C8.98613 59.9588 0.853004 51.8257 0.853004 41.7929ZM4.18634 41.7929C4.18634 49.9847 10.8271 56.6255 19.0189 56.6255C27.2106 56.6255 33.8514 49.9847 33.8514 41.7929L33.8514 18.1692C33.8514 9.97744 27.2106 3.3367 19.0189 3.3367C10.8271 3.33671 4.18634 9.97745 4.18634 18.1692L4.18634 41.7929ZM17.3522 13.5087C17.3522 12.5882 18.0984 11.842 19.0188 11.842C19.9393 11.842 20.6855 12.5882 20.6855 13.5087L20.6855 18.2227C20.6855 19.1432 19.9393 19.8894 19.0188 19.8894C18.0984 19.8894 17.3522 19.1432 17.3522 18.2227L17.3522 13.5087Z" fill="#577655"/>
</svg>
