<svg width="25" height="25" viewBox="0 0 25 25" fill="none" xmlns="http://www.w3.org/2000/svg">
<path d="M5.6258 18.4019L0.326363 23.7014C0.0578785 23.9698 0.0578785 24.4052 0.326363 24.6736C0.594849 24.9421 1.03015 24.9421 1.29864 24.6736L6.59807 19.3742C8.5373 21.0862 11.0848 22.125 13.875 22.125C19.9501 22.125 24.875 17.2001 24.875 11.125C24.875 5.04987 19.9501 0.125 13.875 0.125C7.79987 0.125 2.875 5.04987 2.875 11.125C2.875 13.9152 3.91383 16.4627 5.6258 18.4019ZM13.875 20.75C8.55926 20.75 4.25 16.4407 4.25 11.125C4.25 5.80926 8.55926 1.5 13.875 1.5C19.1907 1.5 23.5 5.80926 23.5 11.125C23.5 16.4407 19.1907 20.75 13.875 20.75Z" fill="#577655"/>
</svg>
