<svg width="42" height="38" viewBox="0 0 42 38" fill="none" xmlns="http://www.w3.org/2000/svg">
<path d="M9.72741 31.6569C9.66139 31.2607 9.6282 30.8598 9.6282 30.4582C9.6282 26.4311 12.8928 23.1665 16.9199 23.1665H22.042C22.6173 23.1665 23.0837 23.6329 23.0837 24.2082V30.9307C23.0837 31.0889 23.1399 31.2419 23.2424 31.3624C23.4808 31.643 23.9016 31.6771 24.1821 31.4386L38.8392 18.9801C38.9506 18.8854 39.0541 18.7819 39.1487 18.6706C40.1175 17.5309 39.9789 15.8217 38.8392 14.8529L24.1821 2.39438C24.0616 2.29193 23.9085 2.23568 23.7503 2.23568C23.3821 2.23568 23.0837 2.53415 23.0837 2.90234V9.62484C23.0837 10.2001 22.6173 10.6665 22.042 10.6665H15.792C8.31314 10.6665 2.25033 16.7293 2.25033 24.2082C2.25033 30.1444 4.8886 33.786 10.3397 35.3305L9.72741 31.6569ZM16.9199 25.2498C14.0434 25.2498 11.7115 27.5817 11.7115 30.4582C11.7115 30.7451 11.7352 31.0314 11.7824 31.3144L12.6528 36.5369C12.7726 37.2554 12.1368 37.8718 11.4223 37.7299C3.99352 36.254 0.166992 31.6621 0.166992 24.2082C0.166992 15.5787 7.16254 8.58317 15.792 8.58317H21.0003V2.90234C21.0003 1.38356 22.2315 0.152344 23.7503 0.152344C24.4029 0.152344 25.0342 0.384389 25.5314 0.80701L40.1885 13.2655C42.2048 14.9795 42.45 18.0035 40.7361 20.0198C40.5686 20.2168 40.3855 20.4 40.1885 20.5675L25.5314 33.026C24.3741 34.0096 22.6386 33.8689 21.655 32.7117C21.2324 32.2145 21.0003 31.5832 21.0003 30.9307V25.2498H16.9199Z" fill="#FAF8F4"/>
</svg>
