<svg width="58" height="58" viewBox="0 0 58 58" fill="none" xmlns="http://www.w3.org/2000/svg">
<g clip-path="url(#clip0_3181_2230)">
<path d="M9.79356 32.012C9.79227 31.937 9.7907 31.8621 9.7907 31.7869C9.7907 24.6173 15.6028 18.8052 22.7724 18.8052C28.9509 18.8052 34.1208 23.1216 35.4322 28.9035C36.6552 28.2189 38.0638 27.8269 39.5649 27.8269C44.2487 27.8269 48.0457 31.6239 48.0457 36.3078C48.0457 36.4992 48.0371 36.6886 48.0246 36.8769C51.5018 38.1677 53.9799 41.5147 53.9799 45.4411C53.9799 50.4851 49.8909 54.5743 44.8467 54.5743H12.274C5.96883 54.5742 0.857422 49.4628 0.857422 43.1576C0.857422 37.7044 4.68115 33.1448 9.79356 32.012Z" fill="#1EA6C6"/>
<path d="M36.1852 3.42529H34.041V11.8019H36.1852V3.42529Z" fill="#F7CF52"/>
<path d="M44.5141 15.2514L46.0303 16.7676L51.9533 10.8446L50.4371 9.32837L44.5141 15.2514Z" fill="#F7CF52"/>
<path d="M57.8572 25.0967H49.4805V27.2409H57.8572V25.0967Z" fill="#F7CF52"/>
<path d="M18.2733 10.845L24.1963 16.7681L25.7125 15.2519L19.7895 9.32885L18.2733 10.845Z" fill="#F7CF52"/>
<path d="M46.1912 26.1523C46.1912 26.8599 46.1254 27.5503 45.9982 28.2207C44.2328 26.8127 41.9956 25.9693 39.5655 25.9693C38.5592 25.9693 37.5599 26.1165 36.6022 26.4024C35.6673 24.0109 34.112 21.871 32.095 20.2414C30.8056 19.1993 29.3504 18.3859 27.8037 17.8284C29.7535 16.1144 32.3109 15.0752 35.1127 15.0752C41.2309 15.0752 46.1912 20.0341 46.1912 26.1523Z" fill="#F7CF52"/>
</g>
<defs>
<clipPath id="clip0_3181_2230">
<rect width="57" height="57" fill="white" transform="translate(0.857422 0.5)"/>
</clipPath>
</defs>
</svg>
