<svg width="24" height="25" viewBox="0 0 24 25" fill="none" xmlns="http://www.w3.org/2000/svg">
<g clip-path="url(#clip0_2693_4909)">
<path d="M12 0.5C12.1989 0.5 12.3897 0.579018 12.5303 0.71967C12.671 0.860322 12.75 1.05109 12.75 1.25V2.021C18.9375 2.357 24 6.83 24 12.5C24 12.5 24 13.25 23.25 13.25C23.0265 13.25 22.722 13.0325 22.722 13.0325L22.716 13.0265L22.6785 12.992C22.421 12.7683 22.1421 12.5704 21.846 12.401C21.1339 11.9838 20.3253 11.7595 19.5 11.75C18.543 11.75 17.733 12.0695 17.154 12.401C16.8579 12.5704 16.579 12.7683 16.3215 12.992L16.284 13.0265L16.2795 13.031C16.2795 13.031 15.9735 13.25 15.75 13.25C15.5265 13.25 15.222 13.0325 15.222 13.0325L15.216 13.0265L15.1785 12.992C14.921 12.7683 14.6421 12.5704 14.346 12.401C13.8517 12.1154 13.3118 11.9175 12.75 11.816V20.75H12H12.75V20.8085L12.7425 20.933C12.7022 21.5078 12.5504 22.0693 12.2955 22.586C12.0361 23.1186 11.6414 23.5737 11.151 23.906C10.59 24.2765 9.8805 24.5 9 24.5C8.1195 24.5 7.4085 24.278 6.849 23.906C6.35849 23.5738 5.96383 23.1186 5.7045 22.586C5.43134 22.0315 5.27704 21.4261 5.2515 20.8085V20.771L5.25 20.7575V20.753C5.25 20.753 5.25 20.75 6 20.75H5.25V20C5.25 19.8011 5.32902 19.6103 5.46967 19.4697C5.61032 19.329 5.80109 19.25 6 19.25C6.19891 19.25 6.38968 19.329 6.53033 19.4697C6.67098 19.6103 6.75 19.8011 6.75 20V20.759L6.7545 20.825C6.78075 21.2035 6.88008 21.5733 7.047 21.914C7.1895 22.2005 7.392 22.4645 7.6815 22.6565C7.9665 22.847 8.3805 23 9 23C9.6195 23 10.0335 22.847 10.3185 22.6565C10.608 22.4645 10.8105 22.2005 10.9545 21.914C11.1309 21.5533 11.2315 21.1602 11.25 20.759V11.816C10.6882 11.9175 10.1483 12.1154 9.654 12.401C9.34332 12.5791 9.05179 12.7887 8.784 13.0265L8.778 13.0325C8.778 13.0325 8.475 13.25 8.25 13.25C8.0265 13.25 7.722 13.0325 7.722 13.0325L7.716 13.0265C7.44821 12.7887 7.15668 12.5791 6.846 12.401C6.13386 11.9838 5.32528 11.7595 4.5 11.75C3.543 11.75 2.7345 12.0695 2.154 12.401C1.84332 12.5791 1.55179 12.7887 1.284 13.0265L1.278 13.0325C1.278 13.0325 0.975 13.25 0.75 13.25C0 13.25 0 12.5 0 12.5C0 6.83 5.0625 2.357 11.25 2.021V1.25C11.25 1.05109 11.329 0.860322 11.4697 0.71967C11.6103 0.579018 11.8011 0.5 12 0.5V0.5ZM9.8655 3.6845C5.616 4.4345 2.3805 7.3715 1.6545 10.9655C2.53189 10.5023 3.50785 10.2569 4.5 10.25C5.709 10.25 6.72 10.625 7.443 11.0165C7.46907 9.82078 7.64237 8.63283 7.959 7.4795C8.322 6.1775 8.919 4.832 9.8655 3.6845ZM8.943 11.0795C9.87369 10.5447 10.9266 10.259 12 10.25C13.0734 10.259 14.1263 10.5447 15.057 11.0795C15.0365 9.99953 14.8818 8.9263 14.5965 7.8845C14.151 6.287 13.347 4.745 12 3.6755C10.653 4.7435 9.849 6.2855 9.4035 7.8815C9.11805 8.92378 8.96336 9.99753 8.943 11.078V11.0795ZM14.133 3.6845C15.0795 4.832 15.678 6.1775 16.041 7.4795C16.3905 8.729 16.533 9.9695 16.557 11.0165C17.4593 10.521 18.4706 10.2576 19.5 10.25C20.655 10.25 21.63 10.595 22.3455 10.9655C21.6195 7.3715 18.384 4.433 14.1345 3.6845H14.133Z" fill="#577655"/>
</g>
<defs>
<clipPath id="clip0_2693_4909">
<rect width="24" height="24" fill="white" transform="translate(0 0.5)"/>
</clipPath>
</defs>
</svg>
