<svg width="40" height="40" viewBox="0 0 40 40" fill="none" xmlns="http://www.w3.org/2000/svg">
<path d="M27.9435 19L21.3884 12.4449C20.9816 12.0381 20.9816 11.3786 21.3884 10.9718C21.7952 10.565 22.4548 10.565 22.8616 10.9718L31.1949 19.3051C31.6017 19.7119 31.6017 20.3714 31.1949 20.7782L22.8616 29.1116C22.4548 29.5184 21.7952 29.5184 21.3884 29.1116C20.9816 28.7048 20.9816 28.0452 21.3884 27.6384L27.9435 21.0833H9.625C9.0497 21.0833 8.58333 20.617 8.58333 20.0417C8.58333 19.4664 9.0497 19 9.625 19H27.9435ZM20.0417 39.8333C9.11103 39.8333 0.25 30.9723 0.25 20.0417C0.25 9.11103 9.11103 0.25 20.0417 0.25C30.9723 0.25 39.8333 9.11103 39.8333 20.0417C39.8333 30.9723 30.9723 39.8333 20.0417 39.8333ZM20.0417 37.75C29.8217 37.75 37.75 29.8217 37.75 20.0417C37.75 10.2616 29.8217 2.33333 20.0417 2.33333C10.2616 2.33333 2.33333 10.2616 2.33333 20.0417C2.33333 29.8217 10.2616 37.75 20.0417 37.75Z" fill="#577655"/>
</svg>
