<svg width="36" height="38" viewBox="0 0 36 38" fill="none" xmlns="http://www.w3.org/2000/svg">
<path d="M2.33333 27.3333V10.6667H1.29167C0.71637 10.6667 0.25 10.2003 0.25 9.625C0.25 9.0497 0.71637 8.58333 1.29167 8.58333H2.33333V5.45833C2.33333 2.58185 4.66518 0.25 7.54167 0.25H30.4583C33.3348 0.25 35.6667 2.58185 35.6667 5.45833V32.5417C35.6667 35.4181 33.3348 37.75 30.4583 37.75H7.54167C4.66518 37.75 2.33333 35.4181 2.33333 32.5417V29.4167H1.29167C0.71637 29.4167 0.25 28.9503 0.25 28.375C0.25 27.7997 0.71637 27.3333 1.29167 27.3333H2.33333ZM4.41667 27.3333H5.45833C6.03363 27.3333 6.5 27.7997 6.5 28.375C6.5 28.9503 6.03363 29.4167 5.45833 29.4167H4.41667V32.5417C4.41667 34.2676 5.81578 35.6667 7.54167 35.6667H30.4583C32.1842 35.6667 33.5833 34.2676 33.5833 32.5417V5.45833C33.5833 3.73244 32.1842 2.33333 30.4583 2.33333H7.54167C5.81578 2.33333 4.41667 3.73244 4.41667 5.45833V8.58333H5.45833C6.03363 8.58333 6.5 9.0497 6.5 9.625C6.5 10.2003 6.03363 10.6667 5.45833 10.6667H4.41667V27.3333ZM11.7083 6.5H26.2917C28.0176 6.5 29.4167 7.89911 29.4167 9.625V13.7917C29.4167 15.5176 28.0176 16.9167 26.2917 16.9167H11.7083C9.98244 16.9167 8.58333 15.5176 8.58333 13.7917V9.625C8.58333 7.89911 9.98244 6.5 11.7083 6.5ZM11.7083 8.58333C11.133 8.58333 10.6667 9.0497 10.6667 9.625V13.7917C10.6667 14.367 11.133 14.8333 11.7083 14.8333H26.2917C26.867 14.8333 27.3333 14.367 27.3333 13.7917V9.625C27.3333 9.0497 26.867 8.58333 26.2917 8.58333H11.7083Z" fill="#2C2C2C"/>
</svg>
