<svg width="50" height="50" viewBox="0 0 50 50" fill="none" xmlns="http://www.w3.org/2000/svg">
<path fill-rule="evenodd" clip-rule="evenodd" d="M33.9188 16.0811C34.0643 16.2263 34.1797 16.3987 34.2585 16.5885C34.3373 16.7783 34.3778 16.9818 34.3778 17.1874C34.3778 17.3929 34.3373 17.5964 34.2585 17.7862C34.1797 17.976 34.0643 18.1485 33.9188 18.2936L24.5438 27.6686C24.3986 27.8141 24.2262 27.9296 24.0364 28.0083C23.8465 28.0871 23.643 28.1277 23.4375 28.1277C23.232 28.1277 23.0285 28.0871 22.8387 28.0083C22.6488 27.9296 22.4764 27.8141 22.3313 27.6686L17.6438 22.9811C17.4985 22.8358 17.3833 22.6634 17.3046 22.4736C17.226 22.2838 17.1855 22.0803 17.1855 21.8749C17.1855 21.6694 17.226 21.466 17.3046 21.2762C17.3833 21.0864 17.4985 20.9139 17.6438 20.7686C17.789 20.6233 17.9615 20.5081 18.1513 20.4295C18.3411 20.3509 18.5446 20.3104 18.75 20.3104C18.9555 20.3104 19.1589 20.3509 19.3487 20.4295C19.5385 20.5081 19.711 20.6233 19.8563 20.7686L23.4375 24.353L31.7063 16.0811C31.8514 15.9356 32.0238 15.8202 32.2137 15.7414C32.4035 15.6626 32.607 15.6221 32.8125 15.6221C33.018 15.6221 33.2215 15.6626 33.4114 15.7414C33.6012 15.8202 33.7736 15.9356 33.9188 16.0811Z" fill="#FAF8F4"/>
<path d="M6.25 6.25C6.25 4.5924 6.90848 3.00269 8.08058 1.83058C9.25268 0.65848 10.8424 0 12.5 0L37.5 0C39.1576 0 40.7473 0.65848 41.9194 1.83058C43.0915 3.00269 43.75 4.5924 43.75 6.25V48.4375C43.7499 48.7201 43.673 48.9974 43.5278 49.2399C43.3825 49.4823 43.1742 49.6808 42.925 49.8142C42.6758 49.9476 42.3951 50.0109 42.1128 49.9974C41.8305 49.9839 41.5572 49.8941 41.3219 49.7375L25 40.9406L8.67812 49.7375C8.44283 49.8941 8.16947 49.9839 7.88716 49.9974C7.60485 50.0109 7.32417 49.9476 7.075 49.8142C6.82583 49.6808 6.61751 49.4823 6.47223 49.2399C6.32695 48.9974 6.25015 48.7201 6.25 48.4375V6.25ZM12.5 3.125C11.6712 3.125 10.8763 3.45424 10.2903 4.04029C9.70424 4.62634 9.375 5.4212 9.375 6.25V45.5187L24.1344 37.7625C24.3908 37.5919 24.692 37.5008 25 37.5008C25.308 37.5008 25.6092 37.5919 25.8656 37.7625L40.625 45.5187V6.25C40.625 5.4212 40.2958 4.62634 39.7097 4.04029C39.1237 3.45424 38.3288 3.125 37.5 3.125H12.5Z" fill="#FAF8F4"/>
</svg>
