<svg width="58" height="58" viewBox="0 0 58 58" fill="none" xmlns="http://www.w3.org/2000/svg">
<g clip-path="url(#clip0_3181_2187)">
<path d="M8.38284 24.8361C8.38169 24.7693 8.38029 24.7026 8.38029 24.6357C8.38029 18.254 13.5537 13.0806 19.9354 13.0806C25.435 13.0806 30.0367 16.9227 31.204 22.0691C32.2925 21.4598 33.5464 21.1109 34.8825 21.1109C39.0516 21.1109 42.4314 24.4906 42.4314 28.6598C42.4314 28.8301 42.4237 28.9987 42.4125 29.1663C45.5076 30.3153 47.7135 33.2945 47.7135 36.7894C47.7135 41.2791 44.0738 44.9189 39.5839 44.9189H10.5907C4.97841 44.9189 0.428711 40.3691 0.428711 34.757C0.428711 29.9029 3.83224 25.8443 8.38284 24.8361Z" fill="#1EA6C6"/>
<path d="M57.4287 33.0139C57.4287 38.1747 53.2451 42.3584 48.0843 42.3584H47.6237C48.723 40.7768 49.3681 38.8567 49.3681 36.7891C49.3681 33.1157 47.2801 29.7553 44.0686 28.0936C43.7747 23.2814 39.7666 19.4565 34.8831 19.4565C33.9874 19.4565 33.098 19.5889 32.2455 19.8433C31.9057 18.9756 31.4757 18.1447 30.9629 17.3673C32.8995 14.7665 35.9978 13.0806 39.4905 13.0806C45.3588 13.0806 50.1163 17.8381 50.1163 23.7063C50.1163 23.7687 50.115 23.8298 50.1137 23.8908C54.2986 24.8183 57.4287 28.5502 57.4287 33.0139Z" fill="#037893"/>
</g>
<defs>
<clipPath id="clip0_3181_2187">
<rect width="57" height="57" fill="white" transform="translate(0.428711 0.5)"/>
</clipPath>
</defs>
</svg>
