<svg width="38" height="38" viewBox="0 0 38 38" fill="none" xmlns="http://www.w3.org/2000/svg">
<path d="M11.2669 33.9897C11.4764 33.9548 11.6916 33.9848 11.8835 34.0756C14.0887 35.1185 16.5044 35.6667 19 35.6667C28.2047 35.6667 35.6666 28.2047 35.6666 19C35.6666 9.79525 28.2047 2.33333 19 2.33333C9.79523 2.33333 2.33331 9.79525 2.33331 19C2.33331 22.5561 3.44849 25.9414 5.48862 28.7603C5.70853 29.0642 5.74809 29.4628 5.59218 29.804L3.05374 35.3586L11.2669 33.9897ZM1.46289 37.7358C0.639532 37.8731 -0.00272989 37.0346 0.344219 36.2754L3.44982 29.4797C1.37796 26.4117 0.249974 22.7896 0.249974 19C0.249974 8.64466 8.64463 0.25 19 0.25C29.3553 0.25 37.75 8.64466 37.75 19C37.75 29.3553 29.3553 37.75 19 37.75C16.3073 37.75 13.6934 37.1814 11.2928 36.0975L1.46289 37.7358Z" fill="#2C2C2C"/>
</svg>
