<svg width="24" height="24" viewBox="0 0 24 24" fill="none" xmlns="http://www.w3.org/2000/svg">
<path d="M3.33333 22.6667C4.4379 22.6667 5.33333 21.7712 5.33333 20.6667V18.6667H3.33333C2.22876 18.6667 1.33333 19.5621 1.33333 20.6667V22.6667H3.33333ZM4.39052 17.3333L2.86193 15.8047C2.60158 15.5444 2.60158 15.1223 2.86193 14.8619C3.12228 14.6016 3.54439 14.6016 3.80474 14.8619L9.13807 20.1953C9.39842 20.4556 9.39842 20.8777 9.13807 21.1381C8.87772 21.3984 8.45561 21.3984 8.19526 21.1381L6.66667 19.6095V20.6667C6.66667 22.5076 5.17428 24 3.33333 24H0.666667C0.298477 24 0 23.7015 0 23.3333V20.6667C0 18.8257 1.49238 17.3333 3.33333 17.3333H4.39052ZM1.13807 23.8047C0.877722 24.0651 0.455612 24.0651 0.195262 23.8047C-0.0650873 23.5444 -0.0650873 23.1223 0.195262 22.8619L2.86193 20.1953C3.12228 19.9349 3.54439 19.9349 3.80474 20.1953C4.06509 20.4556 4.06509 20.8777 3.80474 21.1381L1.13807 23.8047ZM5.232 17.02C5.03686 17.3322 4.62556 17.4271 4.31333 17.232C4.00111 17.0369 3.90619 16.6256 4.10133 16.3133L7.91934 10.2045C9.84766 7.1192 12.5103 4.55963 15.6692 2.7545L19.1783 0.749357C20.0376 0.258296 21.0102 0 22 0C23.1046 0 24 0.895431 24 2C24 2.98976 23.7417 3.96239 23.2506 4.82175L21.2455 8.33076C19.4404 11.4897 16.8808 14.1523 13.7955 16.0807L7.68667 19.8987C7.37444 20.0938 6.96314 19.9989 6.768 19.6867C6.57286 19.3744 6.66778 18.9631 6.98 18.768L13.0888 14.95C15.9874 13.1384 18.392 10.637 20.0878 7.66924L22.093 4.16023C22.4689 3.50234 22.6667 2.75773 22.6667 2C22.6667 1.63181 22.3682 1.33333 22 1.33333C21.2423 1.33333 20.4977 1.53108 19.8398 1.90701L16.3308 3.91216C13.363 5.60802 10.8616 8.01264 9.05001 10.9112L5.232 17.02Z" fill="white"/>
</svg>
