<svg width="30" height="30" viewBox="0 0 30 30" fill="none" xmlns="http://www.w3.org/2000/svg">
<path d="M19.3937 7.94666C19.3726 7.97729 19.3484 8.00646 19.3211 8.03374C18.5841 8.77195 18.5848 9.96692 19.3236 10.7072C20.0013 11.3833 21.066 11.4351 21.803 10.8634L22.6944 9.97057C21.3144 9.78035 20.222 8.6891 20.03 7.30968L19.3937 7.94666ZM17.548 9.79434L5.57115 21.7837C4.83405 22.5219 4.83479 23.7169 5.57365 24.4572C6.30889 25.1908 7.49962 25.1894 8.23337 24.454L20.1957 12.4731C19.5535 12.379 18.9349 12.085 18.4398 11.5911C17.9348 11.0852 17.6375 10.451 17.548 9.79434ZM22.9541 11.4795C22.93 11.5177 22.9013 11.5538 22.8681 11.5871C22.7941 11.6612 22.7173 11.7309 22.6381 11.7961L9.11809 25.3371C7.89689 26.561 5.9147 26.5633 4.68984 25.3411C3.46325 24.1122 3.46202 22.127 4.6867 20.9004L20.896 4.67413C20.921 4.64906 20.9477 4.62656 20.9756 4.60663C21.5357 4.07569 22.2924 3.75 23.125 3.75C24.8509 3.75 26.25 5.14911 26.25 6.875C26.25 7.70184 25.9289 8.45368 25.4046 9.0126C25.3844 9.04116 25.3615 9.0684 25.336 9.09398L22.9541 11.4795ZM21.25 20H21.875C22.2202 20 22.5 20.2798 22.5 20.625C22.5 20.9702 22.2202 21.25 21.875 21.25H21.25V21.9519C21.25 22.2971 20.9702 22.5769 20.625 22.5769C20.2799 22.5769 20 22.2971 20 21.9519V21.25H19.375C19.0299 21.25 18.75 20.9702 18.75 20.625C18.75 20.2798 19.0299 20 19.375 20H20V19.375C20 19.0298 20.2799 18.75 20.625 18.75C20.9702 18.75 21.25 19.0298 21.25 19.375V20ZM12.5 5V4.375C12.5 4.02982 12.7799 3.75 13.125 3.75C13.4702 3.75 13.75 4.02982 13.75 4.375V5H14.375C14.7202 5 15 5.27982 15 5.625C15 5.97018 14.7202 6.25 14.375 6.25H13.75V6.875C13.75 7.22018 13.4702 7.5 13.125 7.5C12.7799 7.5 12.5 7.22018 12.5 6.875V6.25H11.875C11.5299 6.25 11.25 5.97018 11.25 5.625C11.25 5.27982 11.5299 5 11.875 5H12.5ZM27.5 15H28.125C28.4702 15 28.75 15.2798 28.75 15.625C28.75 15.9702 28.4702 16.25 28.125 16.25H27.5V16.875C27.5 17.2202 27.2202 17.5 26.875 17.5C26.5299 17.5 26.25 17.2202 26.25 16.875V16.25H25.625C25.2799 16.25 25 15.9702 25 15.625C25 15.2798 25.2799 15 25.625 15H26.25V14.375C26.25 14.0298 26.5299 13.75 26.875 13.75C27.2202 13.75 27.5 14.0298 27.5 14.375V15ZM23.125 8.75C24.1606 8.75 25 7.91053 25 6.875C25 5.83947 24.1606 5 23.125 5C22.0895 5 21.25 5.83947 21.25 6.875C21.25 7.91053 22.0895 8.75 23.125 8.75Z" fill="white"/>
</svg>
