<svg width="35" height="35" viewBox="0 0 35 35" fill="none" xmlns="http://www.w3.org/2000/svg">
<path d="M4.37533 6.56234V9.4886C4.37533 21.1671 13.8426 30.6344 25.5212 30.6344H28.4378C29.646 30.6344 30.6253 29.6551 30.6253 28.4469V24.7062C30.6253 23.7647 30.0228 22.9287 29.1296 22.631L24.4873 21.0836C23.5515 20.7716 22.5227 21.1246 21.9755 21.9454L20.9124 23.54C20.3652 24.3608 19.3364 24.7138 18.4005 24.4019L16.176 23.6603C13.8948 22.8999 12.1445 21.0497 11.5118 18.7298L10.5973 15.3768C10.2919 14.2567 10.9146 13.0931 12.016 12.726L12.8947 12.4331C13.8141 12.1267 14.3738 11.1969 14.2145 10.2411L13.5414 6.20272C13.3656 5.14793 12.453 4.37484 11.3837 4.37484H6.56283C5.3547 4.37484 4.37533 5.35421 4.37533 6.56234ZM2.91699 6.56234C2.91699 4.5488 4.54929 2.9165 6.56283 2.9165H11.3837C13.1659 2.9165 14.6869 4.20499 14.9799 5.96297L15.653 10.0013C15.9303 11.665 14.956 13.2832 13.3559 13.8166L12.4772 14.1095C12.11 14.2319 11.9025 14.6197 12.0043 14.9931L12.9187 18.3461C13.4232 20.1956 14.8185 21.6706 16.6372 22.2768L18.8617 23.0184C19.1736 23.1223 19.5166 23.0047 19.699 22.7311L20.7621 21.1365C21.674 19.7685 23.3888 19.1802 24.9485 19.7001L29.5907 21.2475C31.0795 21.7437 32.0837 23.1369 32.0837 24.7062V28.4469C32.0837 30.4605 30.4514 32.0928 28.4378 32.0928H25.5212C13.0372 32.0928 2.91699 21.9725 2.91699 9.4886V6.56234Z" fill="#FAF8F4"/>
</svg>
