<svg width="57" height="58" viewBox="0 0 57 58" fill="none" xmlns="http://www.w3.org/2000/svg">
<path d="M52.25 21.7682C51.4615 20.6391 50.4575 19.6771 49.2959 18.9373C48.1343 18.1975 46.8379 17.6947 45.4812 17.4576C45.4812 17.1409 45.4812 16.8203 45.4812 16.4957C45.5629 12.9511 44.2874 9.50915 41.9156 6.87366C39.5438 4.23817 36.2549 2.6082 32.7213 2.31702C29.1877 2.02584 25.6763 3.09544 22.9051 5.30713C20.1339 7.51883 18.3122 10.7055 17.8125 14.2157C17.0701 14.098 16.3197 14.0385 15.5681 14.0376C8.3125 14.0495 2.375 19.5001 2.375 26.2095C2.375 32.6932 6.00875 37.3126 11.7206 38.2151C12.2194 38.5001 44.65 38.5001 45.0419 38.2864C50.5637 37.6451 54.625 33.5364 54.625 28.4895C54.6126 26.0456 53.7758 23.6774 52.25 21.7682Z" fill="#E1E6E8"/>
<path d="M35.5296 55.719C35.0265 55.7208 34.5358 55.5628 34.1283 55.2678C33.6324 54.8961 33.3015 54.3453 33.2061 53.7329C33.1107 53.1206 33.2584 52.4952 33.6177 51.9903L40.9208 42.1578C41.2932 41.6517 41.851 41.3139 42.4719 41.2182C43.0929 41.1224 43.7265 41.2767 44.234 41.6471C44.7299 42.0188 45.0608 42.5696 45.1562 43.182C45.2516 43.7943 45.1039 44.4197 44.7446 44.9246L37.4415 54.7571C37.2203 55.0559 36.9321 55.2986 36.6 55.4656C36.2679 55.6327 35.9013 55.7195 35.5296 55.719Z" fill="#38B1E7"/>
<path d="M23.6546 55.719C23.1515 55.7208 22.6608 55.5628 22.2533 55.2678C21.7574 54.8961 21.4265 54.3453 21.3311 53.7329C21.2357 53.1206 21.3834 52.4952 21.7427 51.9903L29.0458 42.1578C29.4182 41.6517 29.976 41.3139 30.5969 41.2182C31.2179 41.1224 31.8515 41.2767 32.359 41.6471C32.8549 42.0188 33.1858 42.5696 33.2812 43.182C33.3767 43.7943 33.2289 44.4197 32.8696 44.9246L25.5665 54.7571C25.3453 55.0559 25.0571 55.2986 24.725 55.4656C24.393 55.6327 24.0263 55.7195 23.6546 55.719Z" fill="#38B1E7"/>
<path d="M10.5921 55.719C10.089 55.7208 9.59834 55.5628 9.19084 55.2678C8.69493 54.8961 8.36396 54.3453 8.26855 53.7329C8.17315 53.1206 8.32088 52.4952 8.68021 51.9903L15.9833 42.1578C16.3557 41.6517 16.9135 41.3139 17.5344 41.2182C18.1554 41.1224 18.789 41.2767 19.2965 41.6471C19.7924 42.0188 20.1233 42.5696 20.2188 43.182C20.3142 43.7943 20.1664 44.4197 19.8071 44.9246L12.504 54.7571C12.2828 55.0559 11.9946 55.2986 11.6625 55.4656C11.3305 55.6327 10.9638 55.7195 10.5921 55.719Z" fill="#38B1E7"/>
</svg>
