<svg width="58" height="49" viewBox="0 0 58 49" fill="none" xmlns="http://www.w3.org/2000/svg">
<path d="M13.1825 0.5C20.1293 0.5 25.6511 6.02181 25.6511 12.9686C25.6511 19.9155 20.1295 25.4375 13.1825 25.4375C6.23549 25.4375 0.713867 19.9157 0.713867 12.9688C0.713867 6.022 6.23568 0.5 13.1825 0.5Z" fill="#EFC75E"/>
<path d="M48.6294 14.9281C47.3825 8.8719 42.0389 4.0625 35.4482 4.0625C30.817 4.0625 26.72 6.37817 24.4044 9.94061C23.692 9.58431 22.9794 9.40626 22.0887 9.40626C19.0606 9.40626 16.7449 11.7219 16.7449 14.75H15.8543C10.5105 14.75 6.05743 19.2031 6.05743 24.5469C6.05743 24.9032 6.05743 25.2593 6.05743 25.4375C3.02954 25.7936 0.713867 28.4654 0.713867 31.6717C0.713867 35.0561 3.5639 37.9062 6.94828 37.9062H46.1357C52.5482 37.9062 57.7139 32.7405 57.7139 26.328C57.7137 20.8062 53.7949 16.1748 48.6294 14.9281Z" fill="#E4E7E7"/>
<path d="M20.3077 34.3438H26.8982L22.6232 30.0687C21.9108 29.3563 21.9108 28.2874 22.6232 27.575C23.3356 26.8626 24.4045 26.8626 25.1169 27.575L29.3919 31.85V25.4376C29.3919 24.3689 30.1043 23.6562 31.1732 23.6562C32.242 23.6562 32.9546 24.3687 32.9546 25.4376V31.85L37.2296 27.575C37.942 26.8626 39.0109 26.8626 39.7233 27.575C40.4357 28.2874 40.4357 29.3563 39.7233 30.0687L35.2702 34.3438H41.6827C42.7514 34.3438 43.464 35.0562 43.464 36.1251C43.464 37.1938 42.7516 37.9064 41.6827 37.9064H35.2702L39.5453 42.1814C40.2577 42.8939 40.2577 43.9628 39.5453 44.6752C38.8329 45.3876 37.764 45.3876 37.0516 44.6752L32.7765 40.2221V46.8126C32.7765 47.8813 32.0641 48.5939 30.9952 48.5939C29.9265 48.5939 29.2139 47.8815 29.2139 46.8126V40.4001L24.9388 44.6752C24.2264 45.3876 23.1575 45.3876 22.4451 44.6752C21.7327 43.9628 21.7327 42.8939 22.4451 42.1814L26.7202 37.9064H20.3077C19.239 37.9064 18.5264 37.194 18.5264 36.1251C18.5264 35.0564 19.239 34.3438 20.3077 34.3438ZM30.9952 37.9062C32.0639 37.9062 32.7765 37.1938 32.7765 36.1249C32.7765 35.0562 32.0641 34.3436 30.9952 34.3436C29.9265 34.3436 29.2139 35.056 29.2139 36.1249C29.2139 37.1938 29.9265 37.9062 30.9952 37.9062Z" fill="#3CAED6"/>
</svg>
