<svg width="31" height="31" viewBox="0 0 31 31" fill="none" xmlns="http://www.w3.org/2000/svg">
<path d="M15.5003 30.0832C7.44617 30.0832 0.916992 23.554 0.916992 15.4998C0.916992 7.44569 7.44617 0.916504 15.5003 0.916504C23.5545 0.916504 30.0837 7.44569 30.0837 15.4998C30.0837 23.554 23.5545 30.0832 15.5003 30.0832ZM15.5003 28.6248C22.7491 28.6248 28.6253 22.7486 28.6253 15.4998C28.6253 8.2511 22.7491 2.37484 15.5003 2.37484C8.25159 2.37484 2.37533 8.2511 2.37533 15.4998C2.37533 22.7486 8.25159 28.6248 15.5003 28.6248ZM21.0283 18.5523C21.356 18.7864 21.4319 19.2418 21.1978 19.5695C20.9638 19.8972 20.5084 19.9731 20.1807 19.739L15.0765 16.0932C14.9398 15.9956 14.8411 15.8537 14.7969 15.6917L12.6094 7.67086C12.5034 7.28234 12.7325 6.88149 13.121 6.77553C13.5095 6.66957 13.9103 6.89863 14.0163 7.28715L16.1355 15.0574L21.0283 18.5523Z" fill="#FAF8F4"/>
</svg>
